<svg xmlns="http://www.w3.org/2000/svg" viewBox="0 0 160 160" role="img" aria-labelledby="title">
  <title id="title">Female placeholder portrait</title>
  <defs>
    <linearGradient id="bg" x1="18" y1="10" x2="146" y2="150" gradientUnits="userSpaceOnUse">
      <stop stop-color="#ffe1eb"/>
      <stop offset="0.52" stop-color="#fff9fb"/>
      <stop offset="1" stop-color="#dde8ff"/>
    </linearGradient>
    <linearGradient id="top" x1="35" y1="116" x2="124" y2="160" gradientUnits="userSpaceOnUse">
      <stop stop-color="#a83279"/>
      <stop offset="1" stop-color="#3b74ff"/>
    </linearGradient>
  </defs>
  <circle cx="80" cy="80" r="78" fill="url(#bg)"/>
  <path fill="#553449" d="M43 83c-7-37 13-61 39-61 27 0 46 24 37 62-4 18-17 30-37 30-21 0-35-12-39-31Z"/>
  <circle cx="80" cy="69" r="33" fill="#f1c3a6"/>
  <path fill="#f5d0b9" d="M57 67c9 6 24 7 38 1 5 5 8 12 8 22 0 20-10 33-24 33S55 110 55 90c0-9 1-16 2-23Z"/>
  <path fill="#553449" d="M47 73c2-30 17-46 35-46 20 0 33 16 35 46-14-3-27-12-33-27-8 15-20 24-37 27Z"/>
  <path fill="#e6a181" d="M51 78c-5-1-9 3-8 9 1 6 6 10 11 9m55-18c5-1 9 3 8 9-1 6-6 10-11 9"/>
  <path fill="#fff" d="M63 121h34l-5 18H69l-6-18Z"/>
  <path fill="url(#top)" d="M23 160c5-28 28-44 57-44s52 16 57 44H23Z"/>
  <path fill="#ffffff" opacity=".32" d="M46 132c10 9 21 13 34 13 14 0 26-4 35-13 9 7 16 16 21 28H24c4-12 12-22 22-28Z"/>
</svg>
