<svg xmlns="http://www.w3.org/2000/svg" viewBox="0 0 160 160" role="img" aria-labelledby="title">
  <title id="title">Male placeholder portrait</title>
  <defs>
    <linearGradient id="bg" x1="20" y1="12" x2="142" y2="150" gradientUnits="userSpaceOnUse">
      <stop stop-color="#d8e8ff"/>
      <stop offset="0.52" stop-color="#f8fbff"/>
      <stop offset="1" stop-color="#dfe5ef"/>
    </linearGradient>
    <linearGradient id="shirt" x1="40" y1="112" x2="124" y2="160" gradientUnits="userSpaceOnUse">
      <stop stop-color="#0f2b66"/>
      <stop offset="1" stop-color="#3b74ff"/>
    </linearGradient>
  </defs>
  <circle cx="80" cy="80" r="78" fill="url(#bg)"/>
  <circle cx="80" cy="68" r="33" fill="#f0c7a7"/>
  <path fill="#26324a" d="M45 64c0-27 17-43 37-43 22 0 36 16 36 39 0 7-2 15-5 21-3-13-12-22-26-25-14-4-27-1-42 8Z"/>
  <path fill="#e4ad8c" d="M52 75c-5-1-9 3-8 9 1 6 6 10 11 9m53-18c5-1 9 3 8 9-1 6-6 10-11 9"/>
  <path fill="#f4d0b7" d="M60 70c5 5 13 8 23 8 9 0 17-2 24-7v21c0 18-12 31-27 31S53 110 53 92V75c2-1 5-2 7-5Z"/>
  <path fill="#ffffff" d="M62 121h36l-5 19H68l-6-19Z"/>
  <path fill="url(#shirt)" d="M23 160c5-28 28-44 57-44s52 16 57 44H23Z"/>
  <path fill="#ffffff" opacity=".35" d="M45 132c10 9 21 13 35 13s27-4 36-13c9 7 16 16 20 28H24c4-12 11-21 21-28Z"/>
</svg>
